<svg width="8" height="9" viewBox="0 0 8 9" fill="none" xmlns="http://www.w3.org/2000/svg">
<path d="M3.37526 7.34605C3.37525 7.29531 3.36408 7.24519 3.34255 7.19925C3.32101 7.15331 3.28963 7.11266 3.25064 7.0802C3.21165 7.04773 3.16599 7.02424 3.11691 7.01139C3.06782 6.99854 3.01651 6.99663 2.96661 7.00582C2.51371 7.08894 1.94187 7.10144 1.78983 6.67438C1.65726 6.34363 1.43766 6.05492 1.15431 5.83886C1.13409 5.82786 1.11483 5.8152 1.09671 5.80101C1.07191 5.7356 1.02786 5.67924 0.970379 5.63937C0.912896 5.5995 0.844677 5.57799 0.774721 5.57769H0.773032C0.681557 5.57765 0.593794 5.61386 0.528953 5.67839C0.464112 5.74291 0.427475 5.83049 0.42706 5.92197C0.425707 6.20409 0.707644 6.38484 0.822022 6.446C0.956897 6.58151 1.06529 6.74101 1.14164 6.9163C1.26767 7.27038 1.63391 7.80758 2.68669 7.73833C2.68704 7.7505 2.68737 7.76198 2.68754 7.77245L2.68905 7.86503C2.68905 7.95679 2.72551 8.04479 2.79039 8.10967C2.85527 8.17455 2.94327 8.211 3.03503 8.211C3.12678 8.211 3.21478 8.17455 3.27967 8.10967C3.34455 8.04479 3.381 7.95679 3.381 7.86503L3.37931 7.75489C3.37762 7.68932 3.37526 7.59438 3.37526 7.34605ZM7.06574 2.11287C7.07672 2.06963 7.08754 2.02165 7.097 1.96759C7.15295 1.58204 7.10417 1.18853 6.95577 0.828306C6.93704 0.781345 6.90827 0.739048 6.87147 0.70438C6.83467 0.669712 6.79074 0.643513 6.74275 0.627618C6.61958 0.58606 6.16483 0.504296 5.29517 1.06008C4.57227 0.889967 3.81976 0.889967 3.09686 1.06008C2.23074 0.512437 1.77834 0.586752 1.65638 0.625944C1.6072 0.641194 1.56206 0.667255 1.52427 0.702216C1.48647 0.737177 1.45698 0.780152 1.43795 0.827992C1.28651 1.19513 1.23827 1.59666 1.29841 1.98923C1.30686 2.03349 1.31598 2.07437 1.32544 2.11187C1.03883 2.49363 0.886162 2.95928 0.891116 3.43663C0.890182 3.54314 0.895089 3.64961 0.905813 3.75557C1.02137 5.34793 2.05928 5.826 2.78247 5.99021C2.76744 6.03346 2.75376 6.07974 2.74159 6.12873C2.71991 6.21775 2.73442 6.31173 2.78193 6.39007C2.82945 6.46841 2.90608 6.52471 2.99504 6.54662C3.084 6.56854 3.17802 6.55428 3.25649 6.50698C3.33495 6.45967 3.39145 6.38318 3.4136 6.29428C3.43562 6.17901 3.49204 6.07311 3.57544 5.99054C3.62587 5.9464 3.66238 5.88854 3.68053 5.82403C3.69868 5.75951 3.6977 5.69111 3.67769 5.62714C3.65768 5.56317 3.61951 5.5064 3.56783 5.46373C3.51614 5.42106 3.45317 5.39432 3.38658 5.38678C2.19155 5.25029 1.67276 4.76343 1.59472 3.69206C1.58607 3.6072 1.58218 3.52193 1.58306 3.43664C1.57751 3.09643 1.68991 2.76479 1.90116 2.49805C1.92238 2.47024 1.94499 2.44352 1.9689 2.41798C2.01126 2.37058 2.03974 2.31243 2.05121 2.2499C2.06268 2.18738 2.05671 2.12291 2.03394 2.06356C2.0106 2.00112 1.99263 1.93681 1.98022 1.87131C1.95204 1.68508 1.96128 1.4951 2.00742 1.31248C2.30811 1.39741 2.59111 1.53565 2.84294 1.72062C2.88458 1.74836 2.93171 1.76682 2.98111 1.77475C3.03052 1.78267 3.08105 1.77989 3.12928 1.76657C3.82853 1.57681 4.56573 1.57693 5.26491 1.76692C5.31341 1.78022 5.36421 1.78285 5.41382 1.77462C5.46342 1.7664 5.51066 1.74752 5.55227 1.71928C5.80292 1.53354 6.08473 1.39407 6.38443 1.30743C6.43036 1.48566 6.44063 1.6712 6.41466 1.85341C6.40213 1.92521 6.38255 1.99561 6.35621 2.06357C6.33344 2.12291 6.32747 2.18739 6.33894 2.24991C6.35042 2.31243 6.3789 2.37059 6.42125 2.41798C6.44795 2.44805 6.47464 2.48049 6.49862 2.51089C6.70838 2.77311 6.81888 3.10094 6.81065 3.43663C6.81128 3.52645 6.80694 3.61623 6.79764 3.70557C6.72146 4.76274 6.20064 5.24995 5.00004 5.38678C4.93343 5.39436 4.87045 5.42114 4.81877 5.46386C4.7671 5.50657 4.72894 5.56338 4.70895 5.62738C4.68896 5.69137 4.688 5.7598 4.70618 5.82433C4.72436 5.88886 4.76089 5.94673 4.81135 5.99088C4.89737 6.07565 4.95391 6.18579 4.97268 6.30509C4.99606 6.39771 5.0068 6.49306 5.00461 6.58856V7.39606C5.00122 7.62006 5.00122 7.78797 5.00122 7.86501C5.00122 7.95677 5.03767 8.04477 5.10255 8.10965C5.16743 8.17453 5.25543 8.21098 5.34719 8.21098C5.43895 8.21098 5.52695 8.17453 5.59183 8.10965C5.65671 8.04477 5.69316 7.95677 5.69316 7.86501C5.69316 7.79 5.69316 7.62546 5.69654 7.40146V6.58856C5.69933 6.43558 5.68131 6.28294 5.64299 6.13481C5.63203 6.08618 5.61861 6.03815 5.60278 5.99088C6.1291 5.90345 6.6073 5.63209 6.95229 5.22511C7.29728 4.81813 7.48665 4.30194 7.48671 3.76842C7.49811 3.6582 7.50341 3.54744 7.5026 3.43663C7.51028 2.95877 7.35634 2.49231 7.06574 2.11288L7.06574 2.11287Z" fill="#F1F1F1" fill-opacity="0.7"/>
</svg>
