<svg width="8" height="9" viewBox="0 0 8 9" fill="currColor" xmlns="http://www.w3.org/2000/svg">
<path d="M5.69461 3.36598C5.38487 3.36585 5.07993 3.44246 4.80704 3.58897C4.78214 3.52338 4.73787 3.46693 4.68012 3.4271C4.62236 3.38727 4.55386 3.36595 4.4837 3.36598H3.09981C3.05437 3.36596 3.00937 3.37489 2.96738 3.39227C2.9254 3.40964 2.88725 3.43513 2.85512 3.46726C2.82298 3.49939 2.7975 3.53754 2.78012 3.57953C2.76275 3.62151 2.75382 3.66651 2.75384 3.71195V7.86362C2.75381 7.90906 2.76275 7.95406 2.78012 7.99605C2.7975 8.03804 2.82298 8.07619 2.85511 8.10832C2.88725 8.14045 2.9254 8.16594 2.96738 8.18331C3.00937 8.20069 3.05437 8.20962 3.09981 8.20959H4.4837C4.52914 8.20962 4.57414 8.20069 4.61613 8.18331C4.65812 8.16594 4.69627 8.14045 4.7284 8.10832C4.76053 8.07619 4.78602 8.03804 4.80339 7.99605C4.82077 7.95406 4.8297 7.90906 4.82967 7.86362V5.96077C4.82967 5.86902 4.86613 5.78102 4.93101 5.71614C4.99589 5.65125 5.08389 5.6148 5.17565 5.6148C5.2674 5.6148 5.3554 5.65125 5.42029 5.71614C5.48517 5.78102 5.52162 5.86902 5.52162 5.96077V7.86362C5.52159 7.90906 5.53052 7.95406 5.5479 7.99605C5.56528 8.03804 5.59076 8.07619 5.62289 8.10832C5.65502 8.14045 5.69318 8.16594 5.73516 8.18331C5.77715 8.20069 5.82215 8.20962 5.86759 8.20959H7.25148C7.29692 8.20962 7.34192 8.20069 7.38391 8.18331C7.4259 8.16594 7.46405 8.14045 7.49618 8.10832C7.52831 8.07619 7.55379 8.03804 7.57117 7.99605C7.58855 7.95406 7.59748 7.90906 7.59745 7.86362V5.26883C7.59683 4.76436 7.39615 4.28072 7.03943 3.92401C6.68271 3.56729 6.19908 3.36661 5.69461 3.36598ZM6.90551 7.51765H6.21356V5.96077C6.21356 5.6855 6.10421 5.4215 5.90956 5.22686C5.71492 5.03221 5.45092 4.92286 5.17565 4.92286C4.90037 4.92286 4.63638 5.03221 4.44173 5.22686C4.24708 5.4215 4.13773 5.6855 4.13773 5.96077V7.51765H3.44579V4.05793H4.13773V4.30119C4.13777 4.37288 4.16007 4.44278 4.20154 4.50125C4.24302 4.55972 4.30162 4.60387 4.36927 4.6276C4.43691 4.65134 4.51025 4.65349 4.57917 4.63375C4.64808 4.61401 4.70917 4.57337 4.75399 4.51742C4.90926 4.32023 5.12222 4.17645 5.36316 4.10615C5.60409 4.03585 5.86097 4.04254 6.09791 4.12529C6.33486 4.20804 6.54005 4.36272 6.68483 4.56773C6.82962 4.77275 6.90677 5.01785 6.90551 5.26883V7.51765ZM2.0619 3.36598H0.678007C0.632566 3.36596 0.587566 3.37489 0.545579 3.39227C0.503592 3.40964 0.465442 3.43513 0.43331 3.46726C0.401179 3.49939 0.375695 3.53754 0.358318 3.57953C0.34094 3.62151 0.332009 3.66651 0.332035 3.71195V7.86362C0.332009 7.90906 0.34094 7.95406 0.358317 7.99605C0.375694 8.03804 0.401177 8.07619 0.433309 8.10832C0.465441 8.14045 0.503591 8.16594 0.545578 8.18331C0.587566 8.20069 0.632566 8.20962 0.678007 8.20959H2.0619C2.10734 8.20962 2.15234 8.20069 2.19433 8.18331C2.23631 8.16594 2.27446 8.14045 2.30659 8.10832C2.33873 8.07619 2.36421 8.03804 2.38159 7.99605C2.39896 7.95406 2.4079 7.90906 2.40787 7.86362V3.71195C2.40789 3.66651 2.39896 3.62151 2.38159 3.57953C2.36421 3.53754 2.33873 3.49939 2.30659 3.46726C2.27446 3.43513 2.23631 3.40964 2.19432 3.39227C2.15234 3.37489 2.10734 3.36596 2.0619 3.36598ZM1.71592 7.51765H1.02398V4.05793H1.71592V7.51765ZM1.37502 0.786068C1.22361 0.777004 1.07194 0.798833 0.929227 0.850226C0.786517 0.90162 0.655752 0.981503 0.544883 1.08502C0.434015 1.18854 0.34536 1.31352 0.284311 1.45238C0.223262 1.59123 0.191094 1.74105 0.189763 1.89273C0.188432 2.0444 0.217967 2.19476 0.27657 2.33467C0.335174 2.47457 0.421622 2.60109 0.530657 2.70654C0.639692 2.81199 0.769036 2.89415 0.910822 2.94804C1.05261 3.00193 1.20387 3.02642 1.35542 3.02001H1.36522C1.51703 3.02903 1.66909 3.007 1.8121 2.95526C1.95511 2.90353 2.08606 2.82318 2.19697 2.71912C2.30788 2.61506 2.3964 2.48949 2.45714 2.35006C2.51787 2.21064 2.54954 2.06029 2.55021 1.90821C2.55087 1.75614 2.52053 1.60552 2.46102 1.46557C2.40151 1.32562 2.31409 1.19927 2.2041 1.09424C2.09411 0.989216 1.96386 0.90772 1.82131 0.854733C1.67876 0.801747 1.5269 0.778382 1.37502 0.786068H1.37502ZM1.36522 2.32807H1.35542C1.29559 2.33533 1.2349 2.32972 1.17742 2.31161C1.11993 2.2935 1.06698 2.2633 1.02213 2.22305C0.977267 2.1828 0.941534 2.13342 0.917321 2.07823C0.893109 2.02304 0.880977 1.96331 0.88174 1.90304C0.88174 1.64491 1.07534 1.47801 1.37502 1.47801C1.43546 1.46995 1.49693 1.47494 1.55528 1.49264C1.61363 1.51034 1.66751 1.54033 1.71329 1.58061C1.75907 1.62088 1.79569 1.6705 1.82068 1.72612C1.84567 1.78174 1.85845 1.84207 1.85816 1.90304C1.85816 2.16117 1.66457 2.32807 1.36522 2.32807Z" fill="#F1F1F1" fill-opacity="0.7"/>
</svg>
