<svg width="398" height="438" viewBox="0 0 398 438" fill="none" xmlns="http://www.w3.org/2000/svg">
<rect width="398" height="438" rx="58" fill="#F8F8FF"/>
<path fill-rule="evenodd" clip-rule="evenodd" d="M214.592 93.6077C205.261 88.8488 192.616 88.7753 183.211 93.522C150.335 114.901 115.574 135.28 85.7998 155.715C81.3684 159.293 78.2235 164.492 78.2771 170.612C78.3306 176.707 81.5395 181.837 85.9439 185.356C115.574 203.212 150.335 223.592 182.484 246.991C191.815 251.75 204.459 251.823 213.865 247.077C247.665 223.592 261.569 216.799 311.276 184.884C315.708 181.306 318.852 176.106 318.799 169.987C318.745 163.892 315.536 158.762 311.132 155.243C282.426 135.28 247.665 114.901 214.592 93.6077ZM192.781 111.629C196.113 109.948 201.587 109.964 204.942 111.675C233.761 128.487 261.569 148.867 296.808 170.126C268.521 189.626 240.713 210.006 204.295 228.969C200.963 230.651 195.489 230.635 192.134 228.924C158.895 210.006 129.479 189.626 100.268 170.473C129.479 148.867 150.335 135.28 192.781 111.629Z" fill="#7E74F1"/>
<path d="M326.416 220.474C329.466 225.248 327.978 231.534 323.093 234.514L238.176 286.318C226.809 291.524 212.82 298.316 199 298.317C185.18 298.318 171.191 291.524 158.895 286.323L74.9084 235.105C70.0225 232.126 68.5336 225.84 71.5829 221.066C74.6322 216.292 81.0649 214.837 85.9508 217.816L169.937 269.034C177.503 273.648 188.246 277.938 199 277.938C209.754 277.937 219.567 273.645 227.131 269.031L312.048 217.227C316.933 214.247 323.366 215.701 326.416 220.474Z" fill="#7E74F1"/>
<path d="M326.416 271.487C329.466 276.26 327.979 282.546 323.094 285.527L249.556 330.401C226.809 341.277 216.455 347.999 198.536 348C180.618 348.001 157.287 334.484 147.514 330.407L74.9074 286.118C70.0218 283.138 68.5337 276.852 71.5836 272.078C74.6334 267.304 81.0663 265.85 85.9519 268.83L158.558 313.119C169.306 319.676 183.684 325.491 198.536 325.49C213.389 325.489 227.762 319.672 238.508 313.115L312.047 268.241C316.932 265.26 323.365 266.713 326.416 271.487Z" fill="#7E74F1"/>
</svg>
