<svg width="398" height="409" viewBox="0 0 398 409" fill="none" xmlns="http://www.w3.org/2000/svg">
<rect width="398" height="409" rx="58" fill="#F8F8FF"/>
<path d="M303.85 200.643V104.786C303.85 92.7731 294.766 83 283.6 83H105.4C94.2342 83 85.15 92.7731 85.15 104.786V170.143C78.4513 170.143 73 176.008 73 183.214V313.929C73 321.135 78.4513 327 85.15 327H174.25C180.949 327 186.4 321.135 186.4 313.929H220.343C224.162 313.929 227.682 312.055 229.998 308.791C232.315 305.528 233.068 301.38 232.064 297.419L224.101 266H247.15V313.929C247.15 321.135 252.601 327 259.3 327H303.85C310.549 327 316 321.135 316 313.929V213.714C316 206.508 310.549 200.643 303.85 200.643ZM178.3 313.929C178.3 316.329 176.482 318.286 174.25 318.286H85.15C82.9185 318.286 81.1 316.329 81.1 313.929V305.214H178.3V313.929ZM178.3 296.5H81.1V200.643H178.3V296.5ZM178.3 191.929H81.1V183.214C81.1 180.814 82.9185 178.857 85.15 178.857H174.25C176.482 178.857 178.3 180.814 178.3 183.214V191.929ZM224.251 299.711C224.587 301.031 224.336 302.413 223.563 303.502C222.789 304.591 221.619 305.214 220.343 305.214H186.4V296.5H223.437L224.251 299.711ZM186.4 287.786V266H215.706L221.23 287.786H186.4ZM247.15 257.286H186.4V231.143H247.15V257.286ZM247.15 213.714V222.429H186.4V183.214C186.4 176.008 180.949 170.143 174.25 170.143H93.25V104.786C93.25 97.579 98.7013 91.7143 105.4 91.7143H283.6C290.299 91.7143 295.75 97.579 295.75 104.786V200.643H259.3C252.601 200.643 247.15 206.508 247.15 213.714ZM307.9 313.929C307.9 316.329 306.082 318.286 303.85 318.286H259.3C257.068 318.286 255.25 316.329 255.25 313.929V305.214H307.9V313.929ZM307.9 296.5H255.25V231.143H307.9V296.5ZM307.9 222.429H255.25V213.714C255.25 211.314 257.068 209.357 259.3 209.357H303.85C306.082 209.357 307.9 211.314 307.9 213.714V222.429Z" fill="#7E74F1"/>
<path d="M114 100H106V107H114V100Z" fill="#7E74F1"/>
<path d="M127 100H120V107H127V100Z" fill="#7E74F1"/>
<path d="M140 100H133V107H140V100Z" fill="#7E74F1"/>
</svg>
