<svg width="398" height="438" viewBox="0 0 398 438" fill="none" xmlns="http://www.w3.org/2000/svg">
<rect width="398" height="438" rx="58" fill="#F8F8FF"/>
<path d="M220.581 119.1H212.102V127.565H220.581V119.1Z" fill="#7E74F1"/>
<path d="M126.067 306.57L120.071 312.555L128.549 321.019L134.544 315.033L126.067 306.57Z" fill="#7E74F1"/>
<path d="M291.413 260.013L278.694 247.315C277.88 246.498 276.71 246.003 275.612 246.075C274.459 246.101 273.365 246.592 272.58 247.438L272.123 248.602L268.46 244.323V233.378C268.46 232.256 268.014 231.177 267.217 230.385L243.022 206.23V178.355C243.022 177.234 242.577 176.154 241.78 175.363L234.543 168.138V161.425C234.543 161.425 238.782 159.529 238.782 157.193V140.263V84H230.303V134.79H170.948V84H162.469V140.263V157.193C162.469 159.529 162.469 161.425 166.709 161.425V168.138L150.992 183.828C150.195 184.619 149.75 185.699 149.75 186.82V197.765L129.794 217.688C128.997 218.479 128.552 219.559 128.552 220.68V244.323L123.693 248.555L122.142 247.315C120.484 245.66 117.648 245.66 115.99 247.315L103.195 260.013L65 298.105L70.9736 304.09L106.124 268.99L150.997 313.795L115.833 348.895L121.828 354.88L159.985 316.788L172.703 304.09C174.361 302.435 174.361 299.76 172.703 298.105L171.461 296.865L175.93 292.404C176.663 292.535 177.414 292.633 178.185 292.633C179.86 292.633 181.45 292.29 182.917 291.701C184.384 297.098 189.28 301.098 195.144 301.098C199.659 301.098 203.61 298.097 205.866 294.546C207.718 295.595 209.826 295.625 212.102 295.625H218.826L223.015 300.425L221.709 302.147C220.166 303.819 220.217 306.558 221.828 308.166L234.547 320.94L268.464 354.838L274.459 348.874L243.425 317.896L258.463 301.635L288.543 269.104L327.814 308.323L333.809 302.338L291.413 260.013ZM230.303 143.255V151.72H170.948V143.255H230.303ZM156.987 307.81L112.106 263.005L118.83 256.292L120.073 257.533L162.469 299.858L163.711 301.098L156.987 307.81ZM129.065 254.54L135.166 249.068C135.963 248.276 137.031 247.197 137.031 246.075V222.432L149.75 209.735V216.448C149.75 217.569 150.195 218.649 150.992 219.44L166.709 235.13V279.935C166.709 282.991 167.217 285.755 169.023 287.952L165.776 290.88L129.065 254.54ZM209.105 284.168V219.44H200.626V284.168V288.4C200.626 290.732 198.722 292.633 196.386 292.633C194.05 292.633 192.146 290.732 192.146 288.4V279.935V219.44H183.667V279.935C183.667 282.267 181.763 284.168 179.427 284.168C177.091 284.168 175.188 282.267 175.188 279.935V210.975H166.709V223.16L158.229 214.695V203.75V195.285V188.572L173.946 172.883C174.743 172.091 175.188 171.012 175.188 169.89V160.185H226.063V169.89C226.063 171.012 226.508 172.091 227.306 172.883L234.543 180.107V263.005C234.543 265.337 232.639 267.238 230.303 267.238C227.967 267.238 226.063 265.337 226.063 263.005V219.44H217.584V263.005V284.168C217.584 286.5 215.68 288.4 213.344 288.4C211.008 288.4 209.105 286.5 209.105 284.168ZM223.579 289.64C223.566 289.628 224.172 289.628 224.164 289.615C224.961 287.96 226.063 286.127 226.063 284.168V274.924C226.063 275.398 228.811 275.703 230.303 275.703C237.315 275.703 243.022 270.006 243.022 263.005V218.2L259.98 235.13V246.075C259.98 247.197 259.806 248.276 260.599 249.068L265.907 254.68L247.232 275.017L228.84 294.821L223.579 289.64ZM231.172 304.7C231.537 304.484 231.906 304.264 232.194 303.946L253.417 280.638L275.815 256.415L282.531 263.124L267.493 279.389L237.413 311.92L230.697 305.212L231.172 304.7Z" fill="#7E74F1"/>
<path d="M289.654 285.408L281.176 293.872L287.171 299.858L295.649 291.394L289.654 285.408Z" fill="#7E74F1"/>
<path d="M199.383 334.958C185.223 334.958 171.482 332.219 158.539 326.814L155.27 334.627C169.252 340.464 184.095 343.423 199.383 343.423C211.407 343.423 223.257 341.569 234.602 337.912L231.999 329.853C221.497 333.239 210.521 334.958 199.383 334.958Z" fill="#7E74F1"/>
<path d="M305.374 229.145C305.374 239.062 304.005 248.873 301.3 258.307L309.452 260.639C312.374 250.447 313.857 239.849 313.857 229.149C313.857 184.958 287.936 144.3 247.821 125.576L244.23 133.245C281.369 150.581 305.374 188.225 305.374 229.145Z" fill="#7E74F1"/>
<path d="M97.2804 257.634C94.6985 248.407 93.3927 238.821 93.3927 229.145C93.3927 188.225 117.397 150.581 154.541 133.241L150.95 125.572C110.835 144.296 84.9135 184.954 84.9135 229.145C84.9135 239.591 86.3252 249.939 89.1107 259.907L97.2804 257.634Z" fill="#7E74F1"/>
</svg>
